<svg version="1.1" id="Layer_1" xmlns="http://www.w3.org/2000/svg" x="0" y="0" viewBox="0 0 183.8 167.9" xml:space="preserve"><style>.st26{fill:#fff}.st106{fill:#f29323}.st107{fill:#221e20}</style><path d="M154.5 84.5c0 36.7-29.8 66.5-66.5 66.5s-66.5-29.8-66.5-66.5C21.6 47.8 51.4 18 88.1 18s66.4 29.8 66.4 66.5z" fill="#424143"/><path class="st106" d="M68.7 152.9c-3.2 1-6.4 2.1-9.6 3.1-4.1 1.3-9.6 4.6-13.6 1.5-3.6-2.8-5.8-7.3-9.4-10.3-3.9-3.3-8.3-6.5-12.7-8.2-2.7-1-3 1.3-2.4 3.3.7 2.3 3.7 4.2 5.9 2.8.9-.6 1.1-2.9.6-5.1-1.1-4.6-3.7-9.3-6.5-13.6-2.8-4.4-6-8.6-9.4-12.7-1.7-2.1-3.4-4.1-5.1-6.1-1.8-2-3.6-4.5-4.9-7.1-1.3-2.7-2-6.1-1.2-9.3.6-3.2 2.5-5.8 4.4-7.9 4-4.2 8.5-7.3 12.7-10.5 4.3-3.2 8.5-6.4 12-10 3.6-3.7 6.5-7.9 8-12.5 1.5-4.7 1.7-9.8.8-14.8-.4-2.5-1.2-4.8-2-7.5s-1.3-5.6-1.2-8.6c0-3 1.2-6.4 3.5-8.6 2.4-2.3 5.3-3.3 8.1-4 5.7-1.1 11.2-.8 16.6-.3 5.4.6 10.7 1.5 16 2.6L79 11c-5.3-.6-10.6-1.2-15.9-1.4-5.2-.2-10.6-.2-15.4 1-2.4.6-4.6 1.5-6.1 3.1-1.5 1.5-2.2 3.6-2.2 5.9-.1 2.3.5 4.8 1.2 7.2.8 2.4 1.7 5.3 2.2 8 1.1 5.5.9 11.4-.9 17-1.8 5.5-5.2 10.3-9 14.3-3.9 4-8.2 7.4-12.5 10.5-4.3 3.2-8.7 6.3-12 9.9-1.6 1.8-2.9 3.8-3.4 5.8s-.1 4.2.9 6.3c1.1 2.2 2.4 4 4.2 6 1.8 2 3.5 4.1 5.2 6.2 3.4 4.2 6.7 8.5 9.7 13.1 2.9 4.6 5.8 9.4 7.2 15.2.4 1.4.5 3 .4 4.8-.8 9.3-13.8 8.2-16 .2-.4-1.4-.7-2.9-.7-4.7 0-.9.2-1.9.8-3.1.6-1.1 2-2.1 3.1-2.3 2.3-.5 3.9.1 5.3.6 5.6 2.2 9.9 5.6 14.1 9.2 3.5 2.9 7.2 6.7 9.3 10.8 0 .1.1.2.3.1 1.6-.5 12.7-4 18.6-5.8l1.3 4z"/><path class="st107" d="M94.9 140.8c1.3 3.2 4.4 10.8-.2 19.2l-3.9 6.2c-.8.1-1.7.2-2.5.2l2.6-8c1.2-4.1 1-8-.7-11.4-4.5-9.2-17.8-11.9-29.8-6-1.3.7-2.7 1.4-4 2.3l-2.9 2-.4-3.5c-.6-5.3 2.1-9.8 7.4-12.4 2-1 4.2-1.6 6.8-2 11.3-1.6 23.1 3.7 27.3 12.5l.3.9z"/><path class="st26" d="M96.4 139.2l-.1-.2c-4.5-9.3-17.2-15.1-29.4-13.5-2.7.4-5.2 1.1-7.4 2.2-6.1 3-9.3 8.4-8.6 14.5l.8 6.9 5.7-3.9c1.2-.8 2.5-1.6 3.7-2.2 10.9-5.3 23.1-3.1 27 5.1 1.4 2.9 1.6 6.3.6 9.9l-1.9 8c2.2.2 2.6.9 4.6.5.5-.1 1.9-.5 2.3-.4l2.7-5c5.1-9.4 1.6-17.9.3-21-.1-.3-.2-.5-.3-.7v-.2zm-3.8 1.6c.9 2.4 4.8 9.9.2 18.3 1.3-4.4 1.1-8.9-.8-12.9-5-10.2-19.6-13.3-32.6-7-1.5.7-2.9 1.6-4.3 2.5-.5-4.4 1.9-8.1 6.3-10.2 1.7-.8 3.8-1.5 6.1-1.8 10.1-1.4 21.2 3 25.1 11.1z"/><path class="st107" d="M169.3 88c-11.1 8.5-18.1 18-13.6 27.2 1.7 3.4 4.6 6 8.5 7.5l7 .5c-.3.3-1 2.5-1.3 2.9-.2.3-1 .8-1.1 1.2l-5.8-.5c-9.5-1.6-13.5-8.7-15.2-11.7l-.5-.9c-4.2-8.6-1.2-21 7.1-29 1.8-1.8 3.7-3.1 5.7-4.1 5.3-2.6 10.5-2 14.3 1.7l2.5 2.4-3.3 1c-1.5.6-3.1.9-4.3 1.8z"/><path class="st26" d="M174.2 88.3l6.6-2.1-4.9-4.9c-4.4-4.3-10.6-5.1-16.7-2.2-2.2 1.1-4.3 2.6-6.3 4.5-8.8 8.6-12 22.1-7.5 31.4l.1.2.1.2c.1.2.2.4.4.7 1.7 3 6.2 11 16.7 12.7l4.7.8c.6-.5-.9-1.7-.3-2.2.1-.4 1.1-.7 1.4-1.1.8-1.1 2.3-2.1 3.4-2.7l-7-2.8c-3.4-1.4-6-3.6-7.4-6.5-4-8.1 1.7-19.1 12.6-24.4 1.4-.7 2.7-1.2 4.1-1.6zm-.6-3.8c-1.5.5-3.7.9-5.2 1.7-13 6.4-19.5 19.8-14.6 30 1.9 4 5.4 6.9 9.6 8.6-9.4-1.6-12.9-9.2-14.2-11.4-4-8.1-.6-19.6 6.7-26.6 1.7-1.6 3.4-2.9 5.2-3.7 4.3-2.3 9.3-1.8 12.5 1.4z"/><linearGradient id="SVGID_1_" gradientUnits="userSpaceOnUse" x1="-792.556" y1="-3465.278" x2="-613.721" y2="-3551.173" gradientTransform="scale(1 -1) rotate(25.658 -7709.71 13.4)"><stop offset="0" stop-color="#f29323"/><stop offset=".866" stop-color="#e74238"/></linearGradient><path d="M176.5 120.8c-.1 0 0 0 0 0-22.3 30.7-61.7 50.4-101.6 46.6-4.3-.4-10.5-3.7-13.4-7-2.2-1.9-4.1-4.2-5.3-6.6-3.9-8.1 1.2-14.8 11.2-16.2 10-1.4 21.1 3.1 25.1 11.2.3.7.6 1.4.8 2 24.2-3.1 45.9-13.8 63.2-31.1-.3-.5-.7-1.1-1-1.7-4-8.1-.6-19.5 6.7-26.6 7.3-7 15.7-7 19.6 1.1 4 8.2 1.9 21.3-5.3 28.3z" fill="url(#SVGID_1_)"/><path class="st26" d="M66.3 47.9h3.3l1.4 9.6 1-9.6h3.5l-2.4 13.9h-4L68 52.5l-1.2 9.4h-4L60.4 48h3.5l1.1 9.6 1.3-9.7zm9.7 0h8.2v3h-4.6v2.4H84v2.8h-4.3v2.8h4.8v3H76v-14zm15.6 0h4.6l3.4 13.9h-3.9l-.4-2.4h-2.9l-.4 2.4h-3.9l3.5-13.9zm2.3 2.9l-1 5.9h2l-1-5.9zm5.9-2.9h5.7c2.8 0 3.8 1.6 3.8 3.7 0 1.9-.7 3.1-2.4 3.3 1.8.2 2.3 1.3 2.3 3.1v1.2c0 .7 0 1.7.2 1.9.1.2.2.3.4.4v.2h-3.9c-.4-.7-.4-2.1-.4-2.7v-.9c0-1.6-.3-2-1.2-2h-1v5.6h-3.6V47.9zm3.6 5.9h.7c1 0 1.5-.7 1.5-1.7 0-1.1-.4-1.6-1.5-1.6h-.7v3.3zm7.2-5.9h8.2v3h-4.6v2.4h4.3v2.8h-4.3v2.8h4.8v3h-8.4v-14zM65.5 64.7c4 0 5.4 2.2 5.4 7.8s-1.4 7.8-5.4 7.8-5.4-2.2-5.4-7.8 1.4-7.8 5.4-7.8zm0 13c1.2 0 1.3-1.1 1.3-5.2s-.1-5.2-1.3-5.2-1.3 1.1-1.3 5.2.1 5.2 1.3 5.2zM71.9 65h4.4l2.5 9.3V65h3.7v15.1h-4.3l-2.6-9.3v9.3h-3.7V65zM84 65h4v11.9h4.8v3.2H84V65zm9.3 0h3.9v15.1h-3.9V65zm5.2 0h4.4l2.5 9.3V65h3.7v15.1h-4.3l-2.6-9.3v9.3h-3.7V65zm12.1 0h8.9v3.2h-5v2.6h4.7v3.1h-4.7v3h5.2v3.2h-9.1V65zM61 85.5h5.9L70.2 98h.1V85.5h4.9v20.2h-5.8l-3.5-12.5h-.1v12.5H61V85.5zm22.8-.4c5.4 0 7.2 2.9 7.2 10.5s-1.8 10.5-7.2 10.5-7.2-2.9-7.2-10.5 1.8-10.5 7.2-10.5zm0 17.5c1.6 0 1.8-1.5 1.8-6.9s-.2-6.9-1.8-6.9-1.8 1.5-1.8 6.9.1 6.9 1.8 6.9zm15.9-17.1h4.8l2.1 14h.1l1.4-14h5.1l-3.5 20.2h-5.8l-1.8-13.6h-.1l-1.8 13.6h-5.8l-3.5-20.2H96l1.6 14h.1l2-14zm14.8 6.8v-6.8h4.9v6.8l-.6 7.6H115l-.5-7.6zm.1 9h4.8v4.5h-4.8v-4.5z"/><g><path class="st106" d="M92.9 5.9c0 1 .6 1.4 1.6 1.5.7.1 1.4-.1 1.5-.8.1-.8-1.2-1-2.4-1.5-1.3-.4-2.6-1.1-2.5-2.7.2-1.9 2.2-2.5 3.8-2.4 1.8.1 3.4 1.1 3.3 3.1L95.9 3c.1-.8-.6-1.1-1.3-1.2-.5 0-1.1.1-1.2.7-.1.7 1.2.9 2.5 1.4 1.2.5 2.5 1.2 2.3 2.7-.2 2.2-2.1 2.8-4.1 2.6-2-.2-3.7-1.2-3.6-3.5l2.4.2zm7.6-5.1l4.1.8c1.6.3 3 1.3 2.6 3.4-.4 2.2-1.8 2.8-3.7 2.4l-1.8-.4-.5 2.9-2.3-.4 1.6-8.7zm1.5 4.4l1.5.3c.7.1 1.3-.1 1.4-.9.2-.8-.3-1.2-1-1.4l-1.5-.2-.4 2.2zm7.6-2.6l6.7 2.1-.5 1.8-4.5-1.4-.5 1.5 4.1 1.3-.5 1.7-4.1-1.3-.5 1.6 4.6 1.4-.6 1.9-6.8-2.1 2.6-8.5zm10.9 3.8l2.1.9-.5 9.4-2.2-1 .1-1.7-2.8-1.2-1.1 1.2-2.2-.9 6.6-6.7zm-2 5.1l1.8.8.3-3.2-2.1 2.4zm8.5-2.2l2 1.2-1.7 2.9 4.2-1.5 2.5 1.4-4.6 1.4.5 6.5-2.5-1.4-.2-4.4-1.3.4-1.4 2.4-2-1.2 4.5-7.7zm16.1 13.6l-2-1.7-4.3 5.3L135 25l4.3-5.3-2-1.7 1.3-1.5 5.9 4.8-1.4 1.6zm5.6 2.4c1.9 2 1.6 4.5-.2 6.3-1.8 1.8-4.4 2.1-6.3.1-1.9-2-1.6-4.5.2-6.3 1.8-1.8 4.3-2.1 6.3-.1zm-5.2 5c1 1.1 2.4.6 3.3-.4.9-.9 1.5-2.2.4-3.3-1-1.1-2.4-.6-3.3.4-.9.9-1.4 2.3-.4 3.3zm12.1 12.4c-2.1 1.5-3.8 1.2-5.3-1s-1.1-3.9 1-5.3l4.3-2.9 1.3 1.9-4.4 3c-.9.6-1.2 1.3-.5 2.2s1.4.9 2.3.3l4.4-3 1.3 1.9-4.4 2.9zm1.1 3.3c-.9.5-.9 1.3-.4 2.1.3.6.9 1.1 1.5.8.7-.4.2-1.5-.1-2.8-.3-1.3-.4-2.7 1-3.5 1.7-.9 3.3.4 4.1 1.9.8 1.6.9 3.5-.8 4.5l-1.1-2c.7-.3.6-1.1.3-1.8-.2-.4-.7-.9-1.2-.6-.6.3-.1 1.5.2 2.8.3 1.3.4 2.7-1 3.5-2 1.1-3.5-.3-4.4-2-1-1.8-1-3.8 1-4.9l.9 2zm2.4 6.2l.9 2.1-2.1.9-.9-2.1 2.1-.9zm1.5 3.6l.8 2.2-2.2.8-.8-2.2 2.2-.8zm1.4 3.7l.7 2.2-2.2.7-.7-2.2 2.2-.7z"/></g></svg>